<svg width="32" height="32" viewBox="0 0 32 32" fill="none" xmlns="http://www.w3.org/2000/svg">
<path d="M4 8C4 5.79086 5.79086 4 8 4H24C26.2091 4 28 5.79086 28 8V24C28 26.2091 26.2091 28 24 28H8C5.79086 28 4 26.2091 4 24V8Z" fill="#D32F2F"/>
<path fill-rule="evenodd" clip-rule="evenodd" d="M14 9.5C13.4477 9.5 13 9.94772 13 10.5V12H9.5C8.94772 12 8.5 12.4477 8.5 13V21.5C8.5 22.0523 8.94772 22.5 9.5 22.5H11.25V18.75C11.25 18.4739 11.4739 18.25 11.75 18.25C12.0261 18.25 12.25 18.4739 12.25 18.75V22.5H14V18.75C14 18.4739 14.2239 18.25 14.5 18.25C14.7761 18.25 15 18.4739 15 18.75V22.5H16.75V18.75C16.75 18.4739 16.9739 18.25 17.25 18.25C17.5261 18.25 17.75 18.4739 17.75 18.75V22.5H19.5V18.75C19.5 18.4739 19.7239 18.25 20 18.25C20.2761 18.25 20.5 18.4739 20.5 18.75V22.5H22.5C23.0523 22.5 23.5 22.0523 23.5 21.5V13C23.5 12.4477 23.0523 12 22.5 12H19V10.5C19 9.94772 18.5523 9.5 18 9.5H14Z" fill="white"/>
</svg>
