<svg width="44" height="44" viewBox="0 0 44 44" fill="none" xmlns="http://www.w3.org/2000/svg">
<path d="M0 7.33333C0 3.28325 3.28325 0 7.33333 0H36.6667C40.7168 0 44 3.28325 44 7.33333V36.6667C44 40.7168 40.7168 44 36.6667 44H7.33333C3.28325 44 0 40.7168 0 36.6667V7.33333Z" fill="#D32F2F"/>
<path d="M32.5289 18.8028L32.6768 19.5506L33.4371 19.6062C36.9983 19.8664 39.7917 22.7939 39.7917 26.3917C39.7917 27.2886 39.615 28.1768 39.2718 29.0054C38.9286 29.834 38.4255 30.5869 37.7913 31.2212C37.1571 31.8554 36.4042 32.3584 35.5755 32.7017C34.7469 33.0449 33.8588 33.2216 32.9618 33.2216H12.6042C10.3775 33.2216 8.24198 32.337 6.66746 30.7625L5.96035 31.4696L6.66746 30.7625C5.09293 29.188 4.20837 27.0525 4.20837 24.8257C4.20837 20.4885 7.48162 16.9329 11.6953 16.4709L12.2253 16.4128L12.4724 15.9403C14.2646 12.5138 17.8618 10.166 22 10.166C27.2137 10.166 31.5549 13.8754 32.5289 18.8028Z" fill="white" stroke="white" stroke-width="2"/>
<rect x="15.7578" y="17.2012" width="12.0475" height="12.0475" stroke="#D32F2F" stroke-width="1.5"/>
<rect x="14.3838" y="15.8262" width="2.99612" height="2.99612" fill="white" stroke="#D32F2F" stroke-width="0.5"/>
<rect x="26.1832" y="15.8262" width="2.99613" height="2.99612" fill="white" stroke="#D32F2F" stroke-width="0.5"/>
<rect x="14.3838" y="27.625" width="2.99613" height="2.99612" fill="white" stroke="#D32F2F" stroke-width="0.5"/>
<rect x="26.1832" y="27.625" width="2.99613" height="2.99612" fill="white" stroke="#D32F2F" stroke-width="0.5"/>
</svg>
